<?xml version="1.0" encoding="UTF-8" standalone="no"?>
<!-- Created with Inkscape (http://www.inkscape.org/) -->

<svg
   version="1.1"
   id="svg69"
   width="860"
   height="571"
   viewBox="0 0 860 571"
   sodipodi:docname="insta.png.svg"
   inkscape:version="1.1.1 (3bf5ae0d25, 2021-09-20, custom)"
   xmlns:inkscape="http://www.inkscape.org/namespaces/inkscape"
   xmlns:sodipodi="http://sodipodi.sourceforge.net/DTD/sodipodi-0.dtd"
   xmlns="http://www.w3.org/2000/svg"
   xmlns:svg="http://www.w3.org/2000/svg">
  <defs
     id="defs73" />
  <sodipodi:namedview
     id="namedview71"
     pagecolor="#505050"
     bordercolor="#000000"
     borderopacity="1"
     inkscape:pageshadow="0"
     inkscape:pageopacity="0"
     inkscape:pagecheckerboard="1"
     showgrid="false"
     inkscape:zoom="1.3940455"
     inkscape:cx="397.40452"
     inkscape:cy="284.78266"
     inkscape:window-width="1920"
     inkscape:window-height="1011"
     inkscape:window-x="0"
     inkscape:window-y="0"
     inkscape:window-maximized="1"
     inkscape:current-layer="g75" />
  <g
     inkscape:groupmode="layer"
     inkscape:label="Image"
     id="g75">
    <path
       style="fill:#000000;fill-opacity:1"
       d="m 289.44956,530.52443 c -8.21183,-1.18335 -22.38788,-5.33107 -30.72135,-8.98865 -38.41026,-16.85837 -66.59867,-53.01277 -73.23441,-93.93032 -2.30862,-14.23548 -2.30862,-269.70958 0,-283.94506 4.1037,-25.30436 16.7148,-49.533855 35.40732,-68.027475 16.91959,-16.739552 35.02267,-26.729417 61.04844,-33.688498 5.99543,-1.60313 17.16582,-1.762425 143.90016,-2.052083 150.94458,-0.344992 144.81628,-0.558086 164.3234,5.713881 18.92509,6.084834 34.40506,15.66913 49.30487,30.5267 14.59096,14.549602 23.71978,29.064175 29.87473,47.500005 6.87283,20.58611 6.59684,13.80849 6.59684,162 0,148.19151 0.27599,141.41389 -6.59684,162 -6.15495,18.43583 -15.28377,32.9504 -29.87473,47.5 -14.88998,14.84777 -30.38099,24.44221 -49.2696,30.5154 -19.2967,6.2044 -13.59603,5.99635 -160.63982,5.86266 -73.76546,-0.0671 -136.81901,-0.51102 -140.11901,-0.98656 z m 285,-3.17941 c 13.51379,-3.26491 21.08968,-5.90403 31.03329,-10.81067 34.56614,-17.05654 59.65729,-50.54577 66.60765,-88.90142 2.00347,-11.0562 2.00347,-272.9438 0,-284 C 662.79208,92.319499 623.53837,53.33521 571.17235,43.407458 565.93342,42.41424 534.65231,42.132925 429.44956,42.132925 c -148.72365,0 -140.0776,-0.332879 -159.5,6.140858 -45.05738,15.018209 -77.985,56.213507 -83.01517,103.859147 -1.25648,11.90139 -1.25648,255.09861 0,267 2.80577,26.57615 14.54722,52.19475 32.83563,71.64387 19.4193,20.65178 46.66056,34.4705 74.46509,37.77403 3.96795,0.47145 67.06445,0.77352 140.21445,0.67127 121.07988,-0.16924 133.62737,-0.33747 140,-1.87708 z M 295.48034,492.53199 c -11.80852,-1.74461 -28.0212,-8.41839 -37.68614,-15.5131 -2.56276,-1.88124 -8.29505,-7.26108 -12.73844,-11.95521 -6.42436,-6.7869 -9.10923,-10.62328 -13.11,-18.73277 -2.76712,-5.60889 -6.03577,-14.02298 -7.26366,-18.69798 l -2.23254,-8.5 v -133.5 -133.5 l 2.23254,-8.5 c 1.22789,-4.675 4.56086,-13.21848 7.40659,-18.98552 4.58509,-9.29195 6.32299,-11.63733 15.26746,-20.60417 10.44614,-10.47227 17.23917,-15.13103 28.8162,-19.76257 16.46968,-6.588911 5.43454,-6.147745 153.77721,-6.147745 128.38499,0 134.81441,0.08525 141.41554,1.874978 34.5999,9.380914 59.19847,35.532577 65.06485,69.172897 2.28096,13.07999 2.28096,259.82427 0,272.90426 -3.01381,17.28246 -11.40936,33.36573 -23.97796,45.93433 -11.0251,11.02509 -23.01075,17.91662 -40.00243,23.00063 -6.94011,2.07653 -8.12943,2.09573 -139,2.24416 -72.6,0.0823 -134.68615,-0.24715 -137.96922,-0.73219 z m 281.46922,-5.69095 c 32.78363,-11.35999 54.43415,-38.66024 57.94361,-73.06406 1.44289,-14.14491 1.44289,-242.14319 0,-256.2881 -3.50946,-34.40382 -25.15998,-61.704073 -57.94361,-73.064069 l -9.5,-3.291886 -133.5,-0.300566 c -94.24543,-0.212187 -135.26425,0.02384 -139.5,0.802702 -26.88596,4.943737 -49.38932,22.057809 -61.14021,46.497869 -8.49738,17.67325 -7.85979,4.89668 -7.85979,157.5 0,152.18552 -0.59862,139.79597 7.58575,157 9.3308,19.6139 24.97752,34.28718 45.1805,42.36964 14.19153,5.67751 7.97107,5.46413 154.23375,5.29056 l 135,-0.1602 z m -157.5,-76.78543 c -14.1588,-1.97231 -19.23842,-3.01462 -27.5,-5.64285 -43.28676,-13.77065 -75.89981,-50.57385 -84.63144,-95.50495 -2.29836,-11.82683 -2.29836,-34.72293 0,-46.54976 9.91652,-51.02832 50.4138,-90.80696 101.63144,-99.82798 10.6603,-1.87761 33.51101,-1.63704 44.2873,0.46624 26.01972,5.07846 49.31617,17.88341 67.51609,37.11036 35.06465,37.04339 43.9811,92.68024 22.17357,138.35856 -6.52363,13.66448 -12.4955,22.46974 -22.17357,32.69396 -18.08572,19.10631 -41.74034,32.15988 -66.94,36.94017 -8.31556,1.57744 -28.73706,2.74 -34.36339,1.95625 z m 30.78995,-3.91401 c 51.29312,-8.94477 91.27395,-48.9256 100.21872,-100.21872 1.90973,-10.95123 1.90973,-29.62867 0,-40.5799 -8.94477,-51.29312 -48.9256,-91.27395 -100.21872,-100.21872 -11.06639,-1.92982 -29.66111,-1.90408 -40.90458,0.0566 -25.00327,4.36021 -47.04036,15.92492 -65.47643,34.36099 -23.61195,23.61196 -35.9009,53.08109 -35.9009,86.09106 0,33.00997 12.28895,62.4791 35.9009,86.09106 18.13094,18.13094 40.33313,29.90414 64.68814,34.30231 10.57535,1.90976 31.07754,1.96646 41.69287,0.1153 z m -38.28995,-36.0024 c -26.19532,-5.86551 -47.96543,-23.01461 -59.45674,-46.83624 -6.84774,-14.19544 -8.00117,-19.62585 -8.00117,-37.67003 0,-18.0293 1.15485,-23.47727 7.97292,-37.61197 10.69249,-22.16685 31.5317,-39.46511 55.48499,-46.05712 10.19417,-2.80546 34.92645,-2.57061 45.29149,0.43009 23.69219,6.85892 43.0426,22.95552 53.78263,44.739 5.51952,11.19497 7.84948,19.30471 8.83241,30.74244 1.43501,16.69835 -1.28681,30.9532 -8.83241,46.25756 -10.64649,21.59374 -30.04866,37.83658 -53.25312,44.58172 -9.64281,2.803 -32.22893,3.57236 -41.821,1.42455 z m 38,-3.05302 c 9.24571,-2.31634 25.416,-10.43763 32.79647,-16.47155 9.18443,-7.50876 16.70001,-17.12744 22.25425,-28.4817 6.61157,-13.51572 8.32779,-21.03777 8.32779,-36.5 0,-15.46223 -1.71622,-22.98428 -8.32779,-36.5 -5.55424,-11.35426 -13.06982,-20.97294 -22.25425,-28.4817 -7.51082,-6.14049 -23.69382,-14.22213 -32.95795,-16.45888 -37.74176,-9.11248 -77.08297,9.20414 -94.37743,43.94058 -6.64147,13.33961 -8.7502,22.37679 -8.7502,37.5 0,15.12321 2.10873,24.16039 8.7502,37.5 11.68882,23.47733 33.39162,39.76767 60.03891,45.06582 8.61994,1.71386 25.37495,1.17353 34.5,-1.11257 z m 106.08137,-174.9824 c -7.10282,-1.98742 -11.02375,-4.50066 -16.46736,-10.55527 -5.44499,-6.05613 -8.04742,-13.14335 -8.04742,-21.91558 0,-10.05367 2.64338,-16.38744 9.84467,-23.58874 7.2013,-7.20129 13.53507,-9.84467 23.58874,-9.84467 10.05367,0 16.38744,2.64338 23.58874,9.84467 7.20129,7.2013 9.84467,13.53507 9.84467,23.58874 0,10.05855 -2.64316,16.38908 -9.84467,23.57861 -4.29058,4.28345 -7.56537,6.58208 -11.08874,7.7834 -7.24997,2.47192 -15.09555,2.87808 -21.41863,1.10884 z m 22.34154,-4.40941 c 6.25725,-3.05974 11.56494,-8.36177 14.65418,-14.63853 3.42102,-6.95088 3.47426,-19.78846 0.11039,-26.61778 -2.95156,-5.99226 -9.00035,-12.04105 -14.99261,-14.99261 -6.71593,-3.30802 -19.67381,-3.30802 -26.38974,0 -6.01608,2.96329 -12.06195,9.0234 -14.95741,14.99261 -2.75742,5.68461 -3.58441,15.49203 -1.83362,21.74522 2.43745,8.70573 10.75354,17.57325 19.64812,20.95096 5.90843,2.24372 17.68739,1.52993 23.76069,-1.43987 z"
       id="path159" />
    <path
       style="opacity:0.99;fill:#000000;fill-opacity:1;stroke:#000000;stroke-width:0.717337"
       d="m 308.45477,528.31057 c -15.40829,-0.37289 -19.77315,-0.71656 -25.1068,-1.97682 -48.27894,-11.40757 -83.59844,-47.32523 -94.33414,-95.93174 -1.47323,-6.67012 -1.62463,-9.84057 -2.15809,-45.19221 -0.73476,-48.69084 -0.73297,-149.7699 0.004,-198.70226 0.51192,-34.01257 0.72458,-38.73695 2.01812,-44.83355 7.28873,-34.35283 27.26558,-63.199033 56.22763,-81.191663 10.36961,-6.442102 23.88404,-12.161341 35.37363,-14.969943 11.05521,-2.702417 25.21618,-2.937244 159.96608,-2.652669 128.76072,0.271925 129.13794,0.276934 135.34052,1.796935 16.09481,3.944193 34.26797,12.032447 45.92741,20.440732 24.49438,17.664283 41.09183,42.085818 48.38688,71.196588 1.69564,6.76641 1.83273,8.78085 2.41646,35.50817 0.81407,37.27427 0.79792,192.13871 -0.0237,227.75439 -0.67977,29.46487 -0.872,31.25053 -4.67202,43.39887 -2.50179,7.998 -9.97428,23.54106 -14.71424,30.60618 -17.92661,26.72039 -41.80686,43.50526 -74.43904,52.32145 -6.83235,1.84589 -7.50625,1.88738 -39.94708,2.45971 -37.78907,0.66669 -202.33695,0.6437 -230.26507,-0.0322 z m 206.95164,-35.06911 53.44158,-0.5077 7.77609,-2.65348 c 9.48788,-3.23762 20.00424,-8.58175 26.45105,-13.44171 17.43503,-13.14348 30.09204,-33.4731 33.57146,-53.92231 2.40938,-14.16041 2.08618,-263.83432 -0.35729,-276.00042 -6.11976,-30.47056 -28.39993,-55.020162 -59.34226,-65.386794 -5.49664,-1.841545 -8.26369,-2.291123 -17.36162,-2.820844 -14.71973,-0.857046 -241.50283,-0.825858 -257.01616,0.03534 -14.11576,0.783619 -16.47083,1.263429 -26.53606,5.406311 -11.93622,4.912992 -17.26891,8.669144 -28.91897,20.369467 -8.70778,8.74534 -10.89838,11.39276 -13.39908,16.19324 -4.02772,7.73185 -7.72759,17.07633 -9.90169,25.00792 l -1.79673,6.5549 -5.1e-4,133.70328 -5.2e-4,133.7033 2.15816,7.46891 c 3.15777,10.92839 8.3188,22.56188 13.14666,29.63393 3.2663,4.78462 15.98602,17.65 20.92069,21.16028 6.97229,4.95973 16.28665,9.33491 27.97613,13.14107 l 5.73869,1.86855 36.2255,0.41111 c 54.22873,0.61544 127.29754,0.64496 187.22488,0.0756 z"
       id="path1382" />
    <path
       style="opacity:0.99;fill:;fill-opacity:1;stroke:#000000;stroke-width:0.717337"
       d="m 413.18593,406.32351 c -45.27981,-6.10479 -86.22861,-41.20775 -99.60429,-85.38482 -3.63165,-11.99458 -5.03872,-21.90554 -5.03129,-35.43869 0.007,-12.77077 0.79836,-19.10699 3.88082,-31.07348 8.69773,-33.7657 34.42796,-64.24811 67.03994,-79.42172 26.09365,-12.14079 56.98563,-14.36632 84.77322,-6.10727 37.65034,11.19046 68.7922,41.32413 81.21282,78.58363 4.7965,14.38859 5.37733,18.42504 5.41918,37.66017 0.0345,15.84568 -0.12523,18.30475 -1.62333,24.99468 -10.69685,47.76792 -46.3871,83.73338 -93.74421,94.46709 -7.50941,1.70204 -10.43908,1.97953 -22.95477,2.17423 -7.8907,0.12274 -16.60634,-0.0815 -19.36809,-0.45382 z m 33.71482,-35.93019 c 27.39331,-4.13632 53.83091,-26.57595 64.11499,-54.41931 7.51711,-20.35199 7.28366,-43.20146 -0.63767,-62.41301 -9.45624,-22.9342 -26.55733,-39.90604 -49.07592,-48.70503 -10.43879,-4.07889 -14.89613,-4.72075 -32.69348,-4.7079 -16.73296,0.0121 -18.83629,0.33647 -29.90309,4.61178 -23.1745,8.95274 -43.27023,30.28844 -51.43387,54.60752 -3.69409,11.0045 -4.28937,36.12169 -1.14725,48.40727 3.0927,12.09233 11.11405,26.59755 20.18346,36.4983 13.37023,14.5958 33.11597,25.01163 51.18203,26.99839 6.03592,0.66378 22.44414,0.17395 29.4108,-0.87801 z"
       id="path1421" />
    <path
       style="opacity:0.99;fill:#000000;fill-opacity:1;stroke:#000000;stroke-width:0.717337"
       d="m 554.68963,188.64968 c -6.69228,-2.45822 -14.46996,-9.94385 -17.861,-17.19035 -1.89085,-4.04065 -2.15475,-5.38636 -2.1415,-10.92025 0.0244,-10.21446 2.59431,-16.31786 9.70055,-23.03864 5.77568,-5.4624 10.68603,-7.52316 18.79731,-7.88879 10.52171,-0.4743 15.96512,1.59089 23.30562,8.84196 5.95352,5.88099 8.05907,10.54518 8.41294,18.63626 0.15745,3.59997 -0.0944,8.37929 -0.55976,10.62073 -1.78794,8.61244 -10.43546,17.84752 -19.29466,20.60564 -5.42045,1.68753 -16.19281,1.86396 -20.3595,0.33344 z"
       id="path1460" />
  </g>
</svg>
