<?xml version="1.0" encoding="UTF-8" standalone="no"?>
<!-- Created with Inkscape (http://www.inkscape.org/) -->

<svg
   version="1.1"
   id="svg2"
   width="232"
   height="218"
   viewBox="0 0 232 218"
   sodipodi:docname="snap.svg"
   inkscape:version="1.1.1 (3bf5ae0d25, 2021-09-20, custom)"
   xmlns:inkscape="http://www.inkscape.org/namespaces/inkscape"
   xmlns:sodipodi="http://sodipodi.sourceforge.net/DTD/sodipodi-0.dtd"
   xmlns="http://www.w3.org/2000/svg"
   xmlns:svg="http://www.w3.org/2000/svg">
  <defs
     id="defs6" />
  <sodipodi:namedview
     id="namedview4"
     pagecolor="#505050"
     bordercolor="#ffffff"
     borderopacity="1"
     inkscape:pageshadow="0"
     inkscape:pageopacity="0"
     inkscape:pagecheckerboard="1"
     showgrid="false"
     inkscape:zoom="3.559633"
     inkscape:cx="116.0232"
     inkscape:cy="109"
     inkscape:window-width="1920"
     inkscape:window-height="1011"
     inkscape:window-x="0"
     inkscape:window-y="0"
     inkscape:window-maximized="1"
     inkscape:current-layer="g8" />
  <g
     inkscape:groupmode="layer"
     inkscape:label="Image"
     id="g8">
    <path
       style="fill:#000000"
       d="m 101.82772,208.67293 c -4.437963,-1.25787 -11.682357,-5.14777 -23.752883,-12.75419 -5.215707,-3.28675 -5.736916,-3.40419 -13.5,-3.04198 -17.8086,0.83093 -18.896803,0.75023 -22.263306,-1.65104 -1.753659,-1.25085 -4.236526,-4.1742 -5.517484,-6.49633 -2.107188,-3.81992 -3.061872,-4.47525 -10.023523,-6.88056 C 14.526247,173.61833 9.0742902,168.83872 8.2608364,161.62178 7.2277502,152.45626 10.931551,146.93825 19.836562,144.37598 27.096099,142.28717 32.599216,139.50843 37,135.70951 c 4.043794,-3.49076 11.974002,-13.65882 11.989489,-15.37284 0.0058,-0.63983 -3.373243,-2.83527 -7.508942,-4.87876 -8.475034,-4.1876 -11.921377,-7.6676 -13.537608,-13.66982 C 25.043765,91.021382 34.667423,80 46.967881,80 c 2.217666,0 4.044373,-0.1125 4.059349,-0.25 0.01498,-0.1375 0.43951,-6.984565 0.943406,-15.215701 0.899307,-14.690153 0.991105,-15.116913 4.985776,-23.178495 3.28848,-6.636428 5.554641,-9.583797 11.806594,-15.355652 C 88.841102,7.4638865 116.53676,2.2008587 142,12.08287 160.66152,19.325206 176.00886,37.567199 178.94834,56 c 0.5701,3.575 1.03995,10.375543 1.04411,15.112319 l 0.008,8.612318 5.72146,0.672446 c 19.36404,2.275863 24.725,21.724877 8.91406,32.339327 -2.65147,1.78002 -6.57915,3.70987 -8.72818,4.28854 -2.14904,0.57868 -3.90734,1.51621 -3.90734,2.08342 0,3.40913 13.56672,18.07945 19.55801,21.14898 1.61809,0.829 5.56008,2.32706 8.75998,3.32902 9.33847,2.92408 15.20033,11.22801 13.29236,18.82998 -1.7153,6.8343 -10.98198,13.41524 -23.32753,16.56658 -3.33289,0.85076 -4.55824,1.79521 -5.84369,4.50411 -2.09449,4.41379 -6.08734,8.38656 -9.21891,9.17254 -1.3566,0.34048 -7.1192,0.31826 -12.80579,-0.0494 -11.90696,-0.7698 -13.4018,-0.3431 -25.36682,7.24095 -12.44265,7.8868 -16.93648,9.37527 -29.54761,9.78697 -7.15615,0.23362 -12.63269,-0.10366 -15.67228,-0.96518 z M 135.5,189.59512 c 18.83539,-11.54817 17.48866,-11.07335 32,-11.2824 l 13,-0.18727 2.23738,-5.07841 c 2.42624,-5.50709 3.10607,-5.94076 13.36491,-8.52563 6.71755,-1.69258 12.89771,-4.75844 12.89771,-6.3983 0,-0.49846 -1.23019,-1.21505 -2.73376,-1.59242 -1.50357,-0.37738 -6.08742,-2.23562 -10.18633,-4.12943 -13.33391,-6.16065 -27.79932,-23.69899 -29.65868,-35.95915 -0.89192,-5.88113 2.41969,-9.45174 12.01026,-12.94962 C 185.28901,100.99142 190,98.005865 190,96.161045 190,94.602816 187.52061,93 185.1102,93 c -1.3694,0 -5.01424,0.521412 -8.09965,1.158694 -6.7947,1.403423 -10.62198,0.609299 -11.61986,-2.411018 -0.40844,-1.236222 -0.77593,-10.356216 -0.81665,-20.266655 L 164.5,53.462042 161.23301,46.823785 c -1.81615,-3.690253 -5.63976,-9.049229 -8.60993,-12.067237 -9.07934,-9.225564 -18.7501,-13.500216 -32.68321,-14.446572 -22.911073,-1.556151 -41.675966,8.232768 -50.593037,26.392432 -2.798325,5.698806 -2.85259,6.141404 -3.184699,25.975346 l -0.337866,20.177753 -3.352239,1.590742 c -2.767977,1.313491 -4.10341,1.392901 -7.662134,0.45562 -6.646952,-1.750644 -10.909111,-1.649025 -12.146332,0.289595 -1.653902,2.591525 1.454964,5.297416 9.702412,8.444786 13.351848,5.09529 15.286914,9.79222 9.116029,22.1271 -6.743747,13.47995 -20.760551,25.8834 -33.781001,29.89274 C 24.565451,156.62161 22,157.77559 22,158.22049 c 0,1.55077 6.342397,4.64922 12.897712,6.30092 10.357963,2.60984 11.020668,3.03744 13.536288,8.73403 L 50.750001,178.5 h 12.875 c 12.243937,0 13.144579,0.14108 18.374999,2.87825 3.025,1.58303 6.840459,3.82449 8.478797,4.98101 1.638339,1.15652 5.688339,3.5838 9,5.39396 5.902493,3.22632 6.238063,3.28584 17.021203,3.01899 l 11,-0.27221 z"
       id="path30" />
  </g>
</svg>
