<?xml version="1.0" encoding="UTF-8" standalone="no"?>
<!-- Created with Inkscape (http://www.inkscape.org/) -->

<svg
   version="1.1"
   id="svg862"
   width="682.56"
   height="682.56"
   viewBox="0 0 682.56 682.56"
   sodipodi:docname="linked.svg"
   inkscape:version="1.1.1 (3bf5ae0d25, 2021-09-20, custom)"
   xmlns:inkscape="http://www.inkscape.org/namespaces/inkscape"
   xmlns:sodipodi="http://sodipodi.sourceforge.net/DTD/sodipodi-0.dtd"
   xmlns="http://www.w3.org/2000/svg"
   xmlns:svg="http://www.w3.org/2000/svg">
  <defs
     id="defs866" />
  <sodipodi:namedview
     id="namedview864"
     pagecolor="#505050"
     bordercolor="#ffffff"
     borderopacity="1"
     inkscape:pageshadow="0"
     inkscape:pageopacity="0"
     inkscape:pagecheckerboard="1"
     showgrid="false"
     inkscape:zoom="1.1661978"
     inkscape:cx="341.28"
     inkscape:cy="341.28"
     inkscape:window-width="1920"
     inkscape:window-height="1011"
     inkscape:window-x="0"
     inkscape:window-y="0"
     inkscape:window-maximized="1"
     inkscape:current-layer="g868" />
  <g
     inkscape:groupmode="layer"
     inkscape:label="Image"
     id="g868">
    <path
       style="fill:#000000;stroke-width:0.32"
       d="M 134.87267,608.80782 C 116.0737,606.43316 99.698692,590.51204 96.774542,571.7657 c -0.42318,-2.71296 -0.46907,-28.78105 -0.39068,-221.95398 l 0.0888,-218.88 0.84871,-3.04 c 1.24101,-4.44516 2.822338,-7.92502 5.276508,-11.61147 6.45143,-9.69082 17.74169,-16.574451 30.35478,-18.507221 2.4266,-0.37183 37.21253,-0.44131 220.96,-0.44131 208.33187,0 218.21587,0.0256 221.12,0.57368 13.17328,2.485911 23.46554,10.016281 29.1032,21.293421 1.2167,2.4338 2.64461,6.74105 3.25309,9.8129 0.37568,1.89656 0.44371,35.97116 0.44371,222.24 0,211.19434 -0.023,220.10886 -0.57997,222.72 -3.96099,18.57693 -17.50374,32.19754 -34.50109,34.69939 -3.06137,0.45059 -24.98681,0.49658 -219.52,0.46013 -123.037,-0.023 -217.0837,-0.16234 -218.35894,-0.32342 z m 120,-198.8361 v -113.92 h -36.64 -36.64 l -0.0819,113.6 c -0.045,62.48 -0.0133,113.78061 0.0705,114.00134 0.12119,0.31927 7.6348,0.38474 36.72189,0.32 l 36.56951,-0.0813 z m 117.28275,47.44 c 0.003,-64.47392 0.0888,-71.14096 0.97907,-75.76 0.92125,-4.77978 3.78272,-11.10762 7.13757,-15.78394 8.35357,-11.64416 20.20589,-17.44352 34.25328,-16.76025 19.07802,0.928 30.43799,12.63312 33.9168,34.94733 1.06557,6.83481 1.1449,12.0936 1.14771,76.07686 l 0.003,63.92 h 36.64 36.64 v -69.2 c 0,-69.12442 -0.0737,-74.43206 -1.14428,-83.76 -5.16192,-44.97337 -29.70957,-73.35389 -68.68221,-79.40618 -5.42771,-0.84291 -18.27219,-1.17095 -23.83258,-0.60867 -14.97299,1.5141 -27.972,6.74595 -38.33981,15.43101 -5.56963,4.66566 -12.19148,12.0032 -16.83584,18.65545 l -1.72416,2.46955 -0.083,-15.87058 -0.0845,-15.87058 h -36.63678 -36.63702 v 114.08 114.08 h 36.64 36.64 l 0.003,-66.64 z M 229.74853,260.37256 c 18.39706,-3.74908 30.39226,-18.68272 30.45932,-37.92084 0.0381,-10.93011 -3.86452,-21.30844 -10.7531,-28.59604 -4.89011,-5.17335 -12.73774,-9.21727 -20.66208,-10.64725 -3.47948,-0.62789 -12.56475,-0.55237 -16,0.13299 -11.97657,2.38944 -21.28125,9.07631 -26.49054,19.03759 -3.28502,6.2817 -4.65743,12.0637 -4.65047,19.59271 0.0108,11.67247 4.18785,21.92164 11.89881,29.19577 5.57987,5.26377 13.35333,8.82072 21.4822,9.82975 3.6364,0.45139 10.96134,0.14045 14.71586,-0.62468 z"
       id="path1008" />
  </g>
</svg>
